<svg xmlns="http://www.w3.org/2000/svg" width="489" height="355" fill="none" viewBox="0 0 489 355"><g clip-path="url(#clip0)"><path fill="#F2F2F2" d="M175.789 97.737C171.237 102.466 165.755 106.201 159.689 108.704C153.623 111.208 147.104 112.427 140.543 112.283C133.982 112.14 127.523 110.638 121.571 107.872C115.62 105.106 110.306 101.136 105.965 96.2119L0 196.567L149.008 354.072L291.04 219.56L175.789 97.737Z"/><path fill="#F2F2F2" d="M141.492 102.373C147.084 102.38 152.62 101.254 157.766 99.0646C162.912 96.8748 167.562 93.6658 171.436 89.6308L141.888 58.3977L110.318 88.2958C114.215 92.7251 119.012 96.2719 124.387 98.6994C129.763 101.127 135.594 102.379 141.492 102.373Z"/><path fill="#8DC3F2" d="M374.098 148.051C374.108 157.861 372.184 167.577 368.436 176.642C364.689 185.707 359.191 193.944 352.258 200.881C345.325 207.817 337.093 213.318 328.032 217.067C318.972 220.817 309.261 222.742 299.457 222.732C299.031 222.732 298.606 222.727 298.181 222.718C296.39 222.691 294.621 222.601 292.861 222.447C278.436 221.167 264.694 215.716 253.31 206.759C241.926 197.802 233.393 185.725 228.75 172C224.106 158.275 223.554 143.495 227.159 129.461C230.764 115.428 238.372 102.746 249.055 92.9632C259.738 83.1799 273.034 76.7172 287.324 74.3627C301.614 72.0082 316.28 73.8636 329.534 79.7028C342.788 85.542 354.058 95.1127 361.971 107.249C369.884 119.384 374.097 133.561 374.098 148.051Z"/><path fill="#000" d="M342.712 121.026C347.392 112.77 350.446 103.693 351.709 94.2861C341.782 84.7102 329.397 78.0732 315.928 75.1113C302.46 72.1494 288.435 72.9784 275.409 77.5063C262.383 82.0342 250.865 90.0841 242.134 100.763C233.402 111.442 227.798 124.332 225.943 138.004C238.202 149.861 254.161 157.142 271.147 158.628C272.907 158.782 274.676 158.873 276.467 158.9C276.892 158.909 277.318 158.914 277.743 158.914C290.957 158.928 303.937 155.427 315.354 148.769C326.77 142.111 336.212 132.536 342.712 121.026Z" opacity=".1"/><path fill="#3D7DB4" d="M332.48 220.921H212.602V354.894H332.48V220.921Z"/><path fill="#000" d="M370.872 175.932C366.233 186.829 359.072 196.468 349.979 204.054C340.886 211.64 330.122 216.956 318.574 219.563H335.194V353.536H224.626L286.677 246L300.895 221.36L301.931 219.563L348.991 138.012L370.872 175.932Z" opacity=".1"/><path fill="#3D7DB4" d="M364.372 138.917L426.686 246.906L489 354.894H364.372H239.744L302.058 246.906L364.372 138.917Z"/><path fill="#2F2E41" d="M489 353.989H16.7251V354.894H489V353.989Z"/><path fill="#9F616A" d="M77.5838 333.5L76.7583 340.384L72.0794 342.587L66.85 340.934L63.2722 342.587L62.1716 336.253L68.5016 329.094L77.5838 333.5Z"/><path fill="#2F2E41" d="M74.2811 338.731C74.2811 338.731 78.5481 333.754 78.6163 336.243C78.6846 338.731 88.0421 347.268 88.0421 347.268C88.0421 347.268 102.629 351.674 91.3448 354.427C80.0607 357.181 55.2908 349.195 54.4652 347.543C53.6395 345.891 61.3457 333.224 62.1714 334.326C62.997 335.427 67.1253 339.282 74.2811 338.731Z"/><path fill="#2F2E41" d="M84.7395 256.948C84.7395 256.948 86.3908 269.89 84.7395 271.817C83.0882 273.745 83.9138 277.6 84.7395 278.151C85.5652 278.702 83.6386 280.904 82.2625 282.006C80.8864 283.107 78.9599 288.064 78.9599 288.064C78.9599 288.064 71.5289 307.615 71.5289 309.543C71.5289 311.47 68.2263 315.601 68.5015 316.978C68.7767 318.354 66.5749 322.76 66.8501 323.586C67.1254 324.413 63.2723 331.847 64.3732 332.949C65.474 334.05 80.6112 337.906 79.7855 335.427C78.9599 332.949 78.4094 329.92 78.9599 329.92C79.5103 329.92 81.9873 326.891 81.4368 325.789C80.8864 324.688 97.9501 295.774 97.9501 295.774L84.7395 256.948Z"/><path fill="#000" d="M74.2811 338.731C74.2811 338.731 78.5481 333.754 78.6163 336.243C78.6846 338.731 88.0421 347.268 88.0421 347.268C88.0421 347.268 102.629 351.674 91.3448 354.427C80.0607 357.181 55.2908 349.195 54.4652 347.543C53.6395 345.891 61.3457 333.224 62.1714 334.326C62.997 335.427 67.1253 339.282 74.2811 338.731Z" opacity=".1"/><path fill="#000" d="M84.7395 256.948C84.7395 256.948 86.3908 269.89 84.7395 271.817C83.0882 273.745 83.9138 277.6 84.7395 278.151C85.5652 278.702 83.6386 280.904 82.2625 282.006C80.8864 283.107 78.9599 288.064 78.9599 288.064C78.9599 288.064 71.5289 307.615 71.5289 309.543C71.5289 311.47 68.2263 315.601 68.5015 316.978C68.7767 318.354 66.5749 322.76 66.8501 323.586C67.1254 324.413 63.2723 331.847 64.3732 332.949C65.474 334.05 80.6112 337.906 79.7855 335.427C78.9599 332.949 78.4094 329.92 78.9599 329.92C79.5103 329.92 81.9873 326.891 81.4368 325.789C80.8864 324.688 97.9501 295.774 97.9501 295.774L84.7395 256.948Z" opacity=".1"/><path fill="#9F616A" d="M112.812 330.081L115.839 337.791L114.463 348.53L105.656 347.98L100.702 343.574V334.212L112.812 330.081Z"/><path fill="#2F2E41" d="M111.161 339.444C111.161 339.444 114.188 329.53 115.839 332.284C116.886 334.053 117.805 335.893 118.592 337.791C118.592 337.791 132.078 346.603 135.655 346.603C139.233 346.603 142.536 351.009 137.857 352.661C133.178 354.313 97.3997 356.516 96.8492 352.661C96.2988 348.806 97.3997 336.415 99.051 337.791C100.702 339.168 109.234 342.197 111.161 339.444Z"/><path fill="#9F616A" d="M118.041 217.456C118.041 217.456 130.172 225.704 130.722 226.805C131.273 227.907 138.312 231.293 132.532 234.047C126.752 236.801 111.436 219.383 111.436 219.383L118.041 217.456Z"/><path fill="#575A88" d="M111.986 201.484C111.986 201.484 120.793 218.557 119.142 219.108C117.491 219.659 110.885 222.963 110.885 222.963L107.858 205.615L111.986 201.484Z"/><path fill="#000" d="M111.986 201.484C111.986 201.484 120.793 218.557 119.142 219.108C117.491 219.659 110.885 222.963 110.885 222.963L107.858 205.615L111.986 201.484Z" opacity=".1"/><path fill="#2F2E41" d="M111.436 215.804C111.436 215.804 113.362 230.123 112.537 233.152C111.711 236.181 113.087 281.616 111.986 284.095C110.885 286.573 110.06 302.544 110.06 304.472C110.06 306.4 112.262 322.095 112.812 323.472C113.362 324.849 115.014 329.53 114.188 331.733C113.362 333.936 102.078 339.444 100.427 337.516C98.7758 335.588 100.152 329.53 98.7757 329.255C97.3996 328.98 95.7483 316.037 95.7483 316.037L86.666 265.37C86.666 265.37 69.6023 222.963 73.4554 218.833C77.3085 214.702 111.436 215.804 111.436 215.804Z"/><path fill="#9F616A" d="M101.253 118.048C108.701 118.048 114.739 112.007 114.739 104.555C114.739 97.1033 108.701 91.0623 101.253 91.0623C93.8047 91.0623 87.7669 97.1033 87.7669 104.555C87.7669 112.007 93.8047 118.048 101.253 118.048Z"/><path fill="#9F616A" d="M106.207 115.57C106.207 115.57 101.803 127.135 102.354 129.614C102.904 132.092 89.4182 125.208 89.4182 125.208C89.4182 125.208 90.2439 111.715 89.4182 108.135C88.5926 104.555 106.207 115.57 106.207 115.57Z"/><path fill="#575A88" d="M69.2281 190.913C69.2886 193.224 69.3271 194.6 69.3271 194.6C69.3271 194.6 68.5015 207.267 69.8776 211.398C71.2537 215.528 71.2537 218.557 72.0793 221.311C72.3215 222.112 75.616 222.542 80.2424 222.732C84.4863 222.905 89.8504 222.881 94.9997 222.762C103.526 222.564 111.474 222.107 112.812 221.862C115.839 221.311 112.262 216.63 113.362 214.151C114.463 211.673 111.436 180.006 111.436 180.006C111.436 180.006 111.711 162.107 110.335 155.223C108.959 148.339 103.73 137.324 102.629 135.947C101.528 134.57 102.354 133.744 104.831 132.092C107.308 130.44 104.831 124.106 104.831 124.106C100.152 120.251 88.3174 119.7 88.3174 119.7C88.3174 119.7 70.1528 138.425 69.0519 142.281C68.3859 144.61 68.6253 163.219 68.917 177.588C69.0299 182.994 69.1483 187.802 69.2281 190.913Z"/><path fill="#9F616A" d="M92.4457 225.166C92.4457 225.166 102.904 246.645 94.6475 248.022C86.3908 249.398 82.2625 228.47 82.2625 228.47L92.4457 225.166Z"/><path fill="#2F2E41" d="M113.862 97.716C114.339 95.4018 112.572 93.2385 110.71 91.7847C106.655 88.6385 101.667 86.9366 96.5362 86.9488C92.927 86.9684 89.202 87.9237 86.4741 90.2883C83.2922 93.0463 81.8408 97.4692 82.1079 101.673C82.3751 105.876 84.2023 109.863 86.6669 113.278C87.8498 114.917 89.7496 116.614 91.6398 115.899C92.3794 115.553 93.0141 115.017 93.4792 114.345C94.6916 112.84 95.7481 111.215 96.6323 109.497C97.3088 108.181 97.8948 106.795 98.8536 105.669C99.8123 104.543 101.253 103.696 102.718 103.898C103.928 104.065 105.114 104.917 106.268 104.517C107.552 104.072 107.862 102.429 107.964 101.074C108.076 99.588 107.997 97.8669 108.409 96.4622C108.86 96.7031 113.641 98.8249 113.862 97.716Z"/><path fill="#000" d="M69.2281 190.913C72.3105 202.035 79.381 220.779 79.7855 221.586C79.8874 221.793 80.047 222.198 80.2423 222.732C84.4863 222.905 89.8503 222.881 94.9997 222.762C94.2015 220.675 93.2713 218.659 93.2713 218.007C93.2713 216.63 86.666 181.107 86.666 181.107C86.666 181.107 91.8952 165.411 96.574 152.194C101.253 138.976 82.6754 141.592 82.6754 141.592C72.7674 139.114 70.9785 143.382 70.9785 143.382C70.9785 143.382 70.106 166.595 68.9171 177.588C68.6115 180.405 68.2868 182.418 67.951 183.035C67.5106 183.842 68.1052 186.876 69.2281 190.913Z" opacity=".1"/><path fill="#575A88" d="M86.666 132.643C86.666 132.643 99.3262 137.875 94.6474 151.092C89.9687 164.31 84.7395 180.006 84.7395 180.006C84.7395 180.006 91.3448 215.528 91.3448 216.905C91.3448 218.282 95.4731 225.717 93.8218 227.094C92.1704 228.471 81.1616 231.224 80.8864 229.848C80.6111 228.471 78.4094 221.587 77.8589 220.485C77.3085 219.384 64.3731 184.963 66.0244 181.934C67.2396 179.705 68.3058 159.283 68.7842 148.651C68.8947 145.618 69.7927 142.666 71.3897 140.085C72.9868 137.505 75.2279 135.385 77.8924 133.934C80.4584 132.574 83.4459 131.837 86.666 132.643Z"/><path fill="#8DC3F2" d="M137.508 213.227H121.223V229.521H137.508V213.227Z"/><path fill="#3F3D56" d="M129.365 213.227C132.114 213.227 134.341 210.998 134.341 208.248C134.341 205.499 132.114 203.27 129.365 203.27C126.617 203.27 124.389 205.499 124.389 208.248C124.389 210.998 126.617 213.227 129.365 213.227Z"/><path fill="#62733F" d="M321.623 42.1447C321.623 60.693 310.602 67.1694 297.007 67.1694C283.412 67.1694 272.392 60.693 272.392 42.1447C272.392 23.5964 297.007 0 297.007 0C297.007 0 321.623 23.5964 321.623 42.1447Z"/><path fill="#3F3D56" d="M296.11 64.3319L296.362 48.8087L306.854 29.6044L296.402 46.3736L296.515 39.3939L303.746 25.4997L296.546 37.5468L296.749 24.9932L304.492 13.9314L296.781 23.0189L296.908 0L296.108 30.473L296.174 29.2156L288.302 17.1594L296.048 31.6289L295.314 45.6495L295.293 45.277L286.217 32.5894L295.265 46.5918L295.173 48.3452L295.157 48.3715L295.164 48.5154L293.303 84.0861H295.79L296.088 65.7133L305.114 51.7452L296.11 64.3319Z"/><path fill="#62733F" d="M380.937 69.8685C375.055 87.4585 362.549 90.1017 349.657 85.786C336.765 81.4703 328.367 71.83 334.249 54.24C340.131 36.6501 370.957 22.0872 370.957 22.0872C370.957 22.0872 386.818 52.2786 380.937 69.8685Z"/><path fill="#3F3D56" d="M349.706 82.8106L354.868 68.1695L370.908 53.2876L355.678 65.8725L357.999 59.2893L369.262 48.4085L358.613 57.5472L362.787 45.7069L373.638 37.6748L363.444 43.8448L370.864 22.0557L360.442 50.7001L360.903 49.5287L357.26 35.5964L360.017 51.7773L354.876 64.8406L354.973 64.4807L350.39 49.5676L354.53 65.7186L353.887 67.3521L353.863 67.372L353.825 67.511L340.78 100.653L343.138 101.442L349.247 84.1132L362.236 73.7321L349.706 82.8106Z"/><path fill="#62733F" d="M258.752 55.7149C265.419 73.0222 257.463 83.0309 244.778 87.9227C232.093 92.8146 219.482 90.7371 212.814 73.4299C206.147 56.1226 220.634 25.2476 220.634 25.2476C220.634 25.2476 252.085 38.4077 258.752 55.7149Z"/><path fill="#3F3D56" d="M242.922 85.5977L237.577 71.0222L240.464 49.3277L236.739 68.7361L234.335 62.1823L236.088 46.6156L233.7 60.4479L229.377 48.661L232.626 35.5534L228.698 46.8075L220.542 25.2827L230.749 54.005L230.358 52.8083L218.679 44.3911L231.108 55.1053L235.463 68.4514L235.309 68.112L222.28 59.539L235.756 69.3485L236.301 71.0177L236.295 71.048L236.354 71.1798L247.403 105.04L249.723 104.146L243.397 86.8944L246.798 70.6135L242.922 85.5977Z"/><path fill="#8DC3F2" d="M206.473 202.772C204.948 205.206 202.969 205.149 201.185 204.03C199.401 202.91 198.487 201.153 200.012 198.719C201.537 196.285 206.708 195.214 206.708 195.214C206.708 195.214 207.998 200.337 206.473 202.772Z"/><path fill="#8DC3F2" d="M388.385 129.814C388.667 132.673 387.067 133.839 384.971 134.047C382.876 134.254 381.078 133.423 380.796 130.564C380.514 127.705 383.949 123.692 383.949 123.692C383.949 123.692 388.103 126.955 388.385 129.814Z"/><path fill="#8DC3F2" d="M198.359 150.926C196.834 153.361 194.855 153.304 193.071 152.184C191.287 151.065 190.373 149.308 191.898 146.874C193.423 144.439 198.594 143.369 198.594 143.369C198.594 143.369 199.885 148.492 198.359 150.926Z"/></g><defs><clipPath id="clip0"><rect width="489" height="355" fill="#fff"/></clipPath></defs></svg>