<svg xmlns="http://www.w3.org/2000/svg" width="174" height="183" fill="none" viewBox="0 0 174 183"><path fill="#8DC3F2" d="M106.881 75.9742C106.887 81.0084 105.763 85.9941 103.574 90.646C101.385 95.2979 98.1738 99.5247 94.124 103.084C90.0741 106.644 85.2653 109.467 79.9728 111.391C74.6802 113.315 69.008 114.303 63.2806 114.298C63.0322 114.298 62.7838 114.295 62.5354 114.291C61.489 114.277 60.4558 114.23 59.4279 114.151C51.0013 113.495 42.9741 110.698 36.3245 106.101C29.6749 101.504 24.6902 95.307 21.9778 88.2639C19.2655 81.2208 18.9427 73.6362 21.0487 66.4347C23.1548 59.2331 27.5988 52.7256 33.8391 47.7052C40.0793 42.6848 47.8464 39.3684 56.1935 38.1601C64.5407 36.9519 73.1075 37.904 80.8498 40.9005C88.5921 43.8969 95.1755 48.8082 99.7976 55.0359C104.42 61.2636 106.881 68.5386 106.881 75.9742Z"/><path fill="#000" d="M88.5477 62.1058C91.281 57.8691 93.065 53.2111 93.8031 48.3841C88.004 43.4701 80.7695 40.0642 72.9022 38.5443C65.0349 37.0243 56.8423 37.4497 49.2333 39.7733C41.6243 42.0969 34.8963 46.2278 29.7958 51.7077C24.6953 57.1877 21.4216 63.8024 20.3379 70.8182C27.499 76.9029 36.8216 80.6396 46.7438 81.4022C47.7717 81.4812 48.8049 81.5276 49.8513 81.5416C50.0997 81.5462 50.3481 81.5485 50.5965 81.5485C58.3154 81.5557 65.8976 79.7591 72.5664 76.3426C79.2352 72.9261 84.7507 68.0127 88.5477 62.1058Z" opacity=".1"/><path fill="#3D7DB4" d="M82.5704 113.369H12.5449V182.119H82.5704V113.369Z"/><path fill="#000" d="M104.997 90.2818C102.287 95.8741 98.1038 100.82 92.7925 104.713C87.4811 108.606 81.1935 111.334 74.4476 112.672H84.156V181.422H19.5687L55.8155 126.238L64.1208 113.594L64.7259 112.672L92.2156 70.8228L104.997 90.2818Z" opacity=".1"/><path fill="#3D7DB4" d="M101.2 71.2871L137.6 126.703L174 182.119H101.2H28.3997L64.7997 126.703L101.2 71.2871Z"/><path fill="#62733F" d="M76.2287 21.6271C76.2287 31.1454 69.791 34.4688 61.8497 34.4688C53.9084 34.4688 47.4707 31.1454 47.4707 21.6271C47.4707 12.1088 61.8497 0 61.8497 0C61.8497 0 76.2287 12.1088 76.2287 21.6271Z"/><path fill="#3F3D56" d="M61.326 33.0127L61.4731 25.0468L67.6018 15.1919L61.4964 23.7972L61.5625 20.2155L65.7865 13.0855L61.5802 19.2676L61.6991 12.8256L66.2222 7.14906L61.7178 11.8124L61.7921 0L61.3246 15.6376L61.3632 14.9924L56.7645 8.80557L61.2895 16.2308L60.8609 23.4256L60.8482 23.2345L55.5469 16.7237L60.8321 23.9092L60.7784 24.809L60.7689 24.8224L60.7734 24.8963L59.6863 43.1499H61.1386L61.313 33.7216L66.5853 26.5537L61.326 33.0127Z"/><path fill="#62733F" d="M110.876 35.854C107.44 44.8805 100.135 46.2369 92.6043 44.0222C85.0733 41.8076 80.1679 36.8605 83.6038 27.834C87.0396 18.8075 105.047 11.3344 105.047 11.3344C105.047 11.3344 114.312 26.8275 110.876 35.854Z"/><path fill="#3F3D56" d="M92.6333 42.4954L95.6484 34.9822L105.018 27.3453L96.1214 33.8034L97.4772 30.4251L104.056 24.8415L97.8358 29.5312L100.274 23.4552L106.613 19.3334L100.658 22.4996L104.992 11.3182L98.9042 26.0175L99.1734 25.4164L97.0457 18.2669L98.6563 26.5703L95.6529 33.2739L95.71 33.0892L93.0326 25.4364L95.451 33.7244L95.0755 34.5627L95.0615 34.5729L95.039 34.6442L87.4189 51.6515L88.7965 52.0565L92.3651 43.1639L99.9524 37.8367L92.6333 42.4954Z"/><path fill="#62733F" d="M39.5031 28.5909C43.3976 37.4724 38.7505 42.6084 31.3406 45.1188C23.9306 47.6291 16.5638 46.563 12.6693 37.6816C8.77476 28.8001 17.2372 12.9562 17.2372 12.9562C17.2372 12.9562 35.6086 19.7095 39.5031 28.5909Z"/><path fill="#3F3D56" d="M30.256 43.9256L27.1339 36.4461L28.8203 25.3132L26.6442 35.2729L25.2403 31.9097L26.2643 23.9215L24.869 31.0197L22.3442 24.9711L24.242 18.2448L21.9472 24.02L17.1834 12.9742L23.1454 27.7134L22.9173 27.0993L16.095 22.7799L23.3552 28.2781L25.8991 35.1268L25.8092 34.9526L18.1986 30.5533L26.0703 35.5872L26.3885 36.4438L26.385 36.4593L26.4194 36.5269L32.8736 53.9028L34.2289 53.4438L30.5337 44.5911L32.5206 36.2363L30.256 43.9256Z"/><path fill="#8DC3F2" d="M8.96522 104.055C8.07425 105.304 6.91827 105.275 5.87604 104.7C4.8338 104.126 4.3 103.224 5.19097 101.975C6.08193 100.726 9.1025 100.177 9.1025 100.177C9.1025 100.177 9.85618 102.806 8.96522 104.055Z"/><path fill="#8DC3F2" d="M115.227 66.6157C115.392 68.083 114.457 68.6814 113.233 68.7877C112.009 68.894 110.959 68.4678 110.794 67.0006C110.629 65.5333 112.636 63.4744 112.636 63.4744C112.636 63.4744 115.062 65.1485 115.227 66.6157Z"/><path fill="#8DC3F2" d="M4.22548 77.45C3.33451 78.6992 2.17853 78.6698 1.1363 78.0955C0.0940663 77.5213 -0.439745 76.6195 0.45122 75.3703C1.34219 74.1211 4.36276 73.5718 4.36276 73.5718C4.36276 73.5718 5.11644 76.2008 4.22548 77.45Z"/></svg>