<svg xmlns="http://www.w3.org/2000/svg" width="1440" height="111" fill="none" viewBox="0 0 1440 111"><mask id="mask0" width="1440" height="111" x="0" y="0" mask-type="alpha" maskUnits="userSpaceOnUse"><rect width="1440" height="111" fill="#C4C4C4"/></mask><g mask="url(#mask0)"><path fill="#BBE2F2" d="M750.93 0.0235658C941.241 1.0544 1280.27 51.7085 1426 76.9067V825.551C1348.11 835.43 1133.52 856.562 898.294 862.06C604.267 868.932 288.486 801.498 91.298 783.888C-66.4523 769.8 -431.963 799.494 -595 816.102V23.6469C-567.398 18.4927 -479.354 8.69974 -347.989 10.7614C-183.783 13.3385 -16.7694 55.8605 91.298 53.2834C199.365 50.7063 513.041 -1.26498 750.93 0.0235658Z"/><path fill="#8DC3F2" d="M94.0701 12.4738C-96.2407 13.5046 -435.273 64.1587 -581 89.3569V838.001C-503.107 847.88 -288.516 869.012 -53.2944 874.51C240.733 881.382 556.514 813.949 753.702 796.338C911.452 782.25 1276.96 811.944 1440 828.552V36.0971C1412.4 30.9429 1324.35 21.1499 1192.99 23.2116C1028.78 25.7887 861.769 68.3107 753.702 65.7336C645.635 63.1565 331.959 11.1852 94.0701 12.4738Z"/><path fill="#3D7DB4" d="M477 35.6356C341.4 36.6111 99.8333 84.5446 -4 108.389V816.826C51.5 826.174 204.4 846.171 372 851.373C581.5 857.877 806.5 794.065 947 777.4C1059.4 764.069 1319.83 792.168 1436 807.884V57.9901C1416.33 53.1128 1353.6 43.8458 1260 45.7967C1143 48.2354 1024 88.4736 947 86.0349C870 83.5963 646.5 34.4162 477 35.6356Z"/></g></svg>